<svg width="24" height="22" viewBox="0 0 24 22" xmlns="http://www.w3.org/2000/svg">
  <path id="icon"
    d="M20.9444 2.6H19.6667V0.5H17.1111V2.6H6.88889V0.5H4.33333V2.6H3.05556C1.63722 2.6 0.512778 3.545 0.512778 4.7L0.5 19.4C0.5 19.957 0.769245 20.4911 1.2485 20.8849C1.72776 21.2787 2.37778 21.5 3.05556 21.5H20.9444C22.35 21.5 23.5 20.555 23.5 19.4V4.7C23.5 3.545 22.35 2.6 20.9444 2.6ZM20.9444 19.4H3.05556V8.9H20.9444V19.4ZM8.16667 13.1H5.61111V11H8.16667V13.1ZM13.2778 13.1H10.7222V11H13.2778V13.1ZM18.3889 13.1H15.8333V11H18.3889V13.1ZM8.16667 17.3H5.61111V15.2H8.16667V17.3ZM13.2778 17.3H10.7222V15.2H13.2778V17.3ZM18.3889 17.3H15.8333V15.2H18.3889V17.3Z" />
</svg>