<svg width="28" height="22" viewBox="0 0 28 22" fill="none" xmlns="http://www.w3.org/2000/svg">
<path id="Vector" d="M7 14.6667H11.2C11.5713 14.6667 11.9274 14.5121 12.1899 14.2371C12.4525 13.962 12.6 13.589 12.6 13.2C12.6 12.811 12.4525 12.438 12.1899 12.1629C11.9274 11.8879 11.5713 11.7333 11.2 11.7333H7C6.6287 11.7333 6.2726 11.8879 6.01005 12.1629C5.7475 12.438 5.6 12.811 5.6 13.2C5.6 13.589 5.7475 13.962 6.01005 14.2371C6.2726 14.5121 6.6287 14.6667 7 14.6667ZM23.8 0H4.2C3.08609 0 2.0178 0.46357 1.23015 1.28873C0.442499 2.11389 0 3.23305 0 4.4V17.6C0 18.767 0.442499 19.8861 1.23015 20.7113C2.0178 21.5364 3.08609 22 4.2 22H23.8C24.9139 22 25.9822 21.5364 26.7698 20.7113C27.5575 19.8861 28 18.767 28 17.6V4.4C28 3.23305 27.5575 2.11389 26.7698 1.28873C25.9822 0.46357 24.9139 0 23.8 0ZM25.2 17.6C25.2 17.989 25.0525 18.362 24.7899 18.6371C24.5274 18.9121 24.1713 19.0667 23.8 19.0667H4.2C3.8287 19.0667 3.4726 18.9121 3.21005 18.6371C2.9475 18.362 2.8 17.989 2.8 17.6V8.8H25.2V17.6ZM25.2 5.86667H2.8V4.4C2.8 4.01102 2.9475 3.63796 3.21005 3.36291C3.4726 3.08786 3.8287 2.93333 4.2 2.93333H23.8C24.1713 2.93333 24.5274 3.08786 24.7899 3.36291C25.0525 3.63796 25.2 4.01102 25.2 4.4V5.86667Z"/>
</svg>
