<svg width="28" height="22" viewBox="0 0 28 22" xmlns="http://www.w3.org/2000/svg">
  <path id="Vector"
    d="M6.36364 9.42857C6.11191 9.42857 5.86585 9.52073 5.65655 9.69341C5.44725 9.86608 5.28412 10.1115 5.18779 10.3986C5.09146 10.6858 5.06626 11.0017 5.11536 11.3066C5.16447 11.6114 5.28569 11.8914 5.46368 12.1112C5.64168 12.3309 5.86845 12.4806 6.11534 12.5412C6.36222 12.6019 6.61813 12.5707 6.85069 12.4518C7.08325 12.3329 7.28202 12.1315 7.42187 11.873C7.56172 11.6146 7.63636 11.3108 7.63636 11C7.63636 10.5832 7.50227 10.1835 7.26359 9.88883C7.02491 9.59413 6.70118 9.42857 6.36364 9.42857ZM21.6364 9.42857C21.3846 9.42857 21.1386 9.52073 20.9293 9.69341C20.72 9.86608 20.5568 10.1115 20.4605 10.3986C20.3642 10.6858 20.339 11.0017 20.3881 11.3066C20.4372 11.6114 20.5584 11.8914 20.7364 12.1112C20.9144 12.3309 21.1412 12.4806 21.3881 12.5412C21.635 12.6019 21.8909 12.5707 22.1234 12.4518C22.356 12.3329 22.5547 12.1315 22.6946 11.873C22.8344 11.6146 22.9091 11.3108 22.9091 11C22.9091 10.5832 22.775 10.1835 22.5363 9.88883C22.2976 9.59413 21.9739 9.42857 21.6364 9.42857ZM24.1818 0H3.81818C2.80554 0 1.83437 0.496682 1.11832 1.38078C0.402272 2.26488 0 3.46398 0 4.71429V17.2857C0 18.536 0.402272 19.7351 1.11832 20.6192C1.83437 21.5033 2.80554 22 3.81818 22H24.1818C25.1945 22 26.1656 21.5033 26.8817 20.6192C27.5977 19.7351 28 18.536 28 17.2857V4.71429C28 3.46398 27.5977 2.26488 26.8817 1.38078C26.1656 0.496682 25.1945 0 24.1818 0ZM25.4545 17.2857C25.4545 17.7025 25.3205 18.1022 25.0818 18.3969C24.8431 18.6916 24.5194 18.8571 24.1818 18.8571H3.81818C3.48063 18.8571 3.15691 18.6916 2.91823 18.3969C2.67954 18.1022 2.54545 17.7025 2.54545 17.2857V4.71429C2.54545 4.29752 2.67954 3.89782 2.91823 3.60312C3.15691 3.30842 3.48063 3.14286 3.81818 3.14286H24.1818C24.5194 3.14286 24.8431 3.30842 25.0818 3.60312C25.3205 3.89782 25.4545 4.29752 25.4545 4.71429V17.2857ZM14 6.28571C13.2448 6.28571 12.5066 6.5622 11.8787 7.08021C11.2508 7.59823 10.7614 8.3345 10.4725 9.19592C10.1835 10.0573 10.1079 11.0052 10.2552 11.9197C10.4025 12.8342 10.7662 13.6742 11.3001 14.3335C11.8341 14.9928 12.5145 15.4418 13.2551 15.6237C13.9958 15.8056 14.7635 15.7122 15.4612 15.3554C16.1588 14.9986 16.7552 14.3944 17.1747 13.6191C17.5942 12.8439 17.8182 11.9324 17.8182 11C17.8182 9.74969 17.4159 8.5506 16.6999 7.6665C15.9838 6.7824 15.0126 6.28571 14 6.28571ZM14 12.5714C13.7483 12.5714 13.5022 12.4793 13.2929 12.3066C13.0836 12.1339 12.9205 11.8885 12.8242 11.6014C12.7278 11.3142 12.7026 10.9983 12.7517 10.6934C12.8008 10.3886 12.9221 10.1086 13.1 9.88883C13.278 9.66906 13.5048 9.5194 13.7517 9.45877C13.9986 9.39813 14.2545 9.42925 14.4871 9.54819C14.7196 9.66713 14.9184 9.86854 15.0582 10.127C15.1981 10.3854 15.2727 10.6892 15.2727 11C15.2727 11.4168 15.1386 11.8165 14.9 12.1112C14.6613 12.4059 14.3375 12.5714 14 12.5714Z" />
</svg>