<svg width="35" height="27" viewBox="0 0 35 27" fill="none" xmlns="http://www.w3.org/2000/svg">
<path d="M34.9891 4.04204L35 22.9261C35 25.154 33.1328 26.9788 30.8638 26.9788L4.17959 27C1.88896 27 0.0217121 25.1752 0.0217121 22.958L0 4.07387C0 1.83536 1.86725 0.0212181 4.14702 0.0212181L30.8421 0C33.1219 0 34.9891 1.80354 34.9891 4.04204Z" fill="#F6C859"/>
<path d="M13.4937 23.3928C13.3418 23.3928 13.2006 23.3185 13.1355 23.1806C13.0378 22.9897 13.1138 22.7457 13.3092 22.6502C13.8954 22.3531 14.6879 21.8015 15.1547 20.8572C15.741 19.6478 15.589 18.3323 15.3393 18.2156C15.2741 18.1838 15.0353 18.3111 14.8833 18.3853C14.5034 18.5763 13.9714 18.8415 13.3635 18.6293C12.7664 18.4278 12.4733 17.9079 12.3321 17.6533C11.4094 16.0089 11.1271 11.7441 12.0933 9.62228C12.419 8.92208 12.8532 8.49772 13.396 8.37041C13.9497 8.2431 14.4057 8.46589 14.7639 8.65685C15.057 8.80538 15.209 8.86903 15.3067 8.81599C15.6867 8.5932 15.6758 7.23524 15.1439 6.16373C14.6771 5.20892 13.8846 4.65725 13.2983 4.3708C13.1029 4.27532 13.0161 4.03131 13.1246 3.84035C13.2223 3.64939 13.472 3.56452 13.6674 3.67061C14.3622 4.0207 15.3176 4.67846 15.8712 5.83485C16.4249 6.97002 16.6854 8.93269 15.7192 9.50558C15.2307 9.79202 14.7639 9.55862 14.3948 9.37827C14.1125 9.24035 13.8411 9.10243 13.5806 9.16609C13.2223 9.25096 12.9835 9.64349 12.8315 9.96177C11.9848 11.8183 12.2344 15.8498 13.0378 17.2926C13.1789 17.5366 13.3418 17.8018 13.624 17.8973C13.8954 17.9928 14.156 17.8761 14.5142 17.6958C14.8725 17.5154 15.2633 17.3244 15.6867 17.5154C16.5986 17.9504 16.5334 19.8494 15.8821 21.2073C15.3176 22.3637 14.3731 23.0215 13.6783 23.3716C13.6132 23.3822 13.548 23.3928 13.4937 23.3928Z" fill="#7D662D"/>
<path d="M12.2673 10.3332H4.98285C4.75487 10.3332 4.58118 10.1529 4.58118 9.94069C4.58118 9.72851 4.75487 9.54816 4.972 9.54816H12.2564C12.4844 9.54816 12.6581 9.72851 12.6581 9.94069C12.669 10.1529 12.4953 10.3332 12.2673 10.3332Z" fill="#7D662D"/>
<path d="M12.2673 17.4621H4.98285C4.75487 17.4621 4.58118 17.2817 4.58118 17.0695C4.58118 16.8467 4.76573 16.677 4.98285 16.677H12.2673C12.4953 16.677 12.669 16.8574 12.669 17.0695C12.6798 17.2817 12.4953 17.4621 12.2673 17.4621Z" fill="#7D662D"/>
<path d="M21.994 23.3824C21.9289 23.3824 21.8638 23.3718 21.8095 23.3399C21.1147 22.9899 20.1594 22.3321 19.6057 21.1757C18.9435 19.8177 18.8892 17.9187 19.7902 17.4838C20.2136 17.2822 20.6153 17.4838 20.9627 17.6535C21.3318 17.8339 21.5924 17.9506 21.8529 17.8551C22.1569 17.749 22.3306 17.4413 22.4391 17.2504C23.2425 15.8075 23.4813 11.7655 22.6345 9.91952C22.4826 9.60125 22.2437 9.1981 21.8855 9.12384C21.6683 9.07079 21.5272 8.85861 21.5815 8.64643C21.6358 8.43425 21.8529 8.30694 22.07 8.34938C22.6128 8.47669 23.0471 8.89044 23.3727 9.59064C24.3498 11.7124 24.0675 15.9879 23.1448 17.6217C23.0036 17.8763 22.7105 18.3961 22.1134 18.5977C21.5055 18.8099 20.9736 18.5447 20.5936 18.3537C20.4416 18.2794 20.2028 18.1627 20.1376 18.184C19.8988 18.3007 19.736 19.6162 20.333 20.8256C20.7999 21.7804 21.5924 22.3321 22.1786 22.6185C22.374 22.714 22.4608 22.958 22.3523 23.149C22.2871 23.3081 22.146 23.3824 21.994 23.3824Z" fill="#7D662D"/>
<path d="M20.3656 8.74164C20.1919 8.74164 20.0399 8.63555 19.9856 8.47642C19.1171 5.93025 21.1472 3.96758 21.7986 3.6493C21.994 3.54321 22.2437 3.62809 22.3414 3.81905C22.4391 4.01001 22.3631 4.25402 22.1677 4.3495C21.8746 4.49803 20.0073 6.05756 20.7455 8.2218C20.8215 8.43398 20.7021 8.65677 20.485 8.72042C20.4524 8.74164 20.409 8.74164 20.3656 8.74164Z" fill="#7D662D"/>
<path d="M30.4941 10.3222H23.2097C22.9817 10.3222 22.808 10.1419 22.808 9.9297C22.808 9.71752 22.9925 9.53717 23.2097 9.53717H30.4941C30.7221 9.53717 30.8958 9.71752 30.8958 9.9297C30.8958 10.1419 30.7112 10.3222 30.4941 10.3222Z" fill="#7D662D"/>
<path d="M30.4941 17.4407H23.2097C22.9817 17.4407 22.808 17.2604 22.808 17.0482C22.808 16.8254 22.9925 16.6556 23.2097 16.6556H30.4941C30.7221 16.6556 30.8958 16.836 30.8958 17.0482C30.8958 17.271 30.7221 17.4407 30.4941 17.4407Z" fill="#7D662D"/>
</svg>
