<?xml version="1.0" encoding="UTF-8"?>
<svg xmlns="http://www.w3.org/2000/svg" viewBox="0 0 172.06 158.49">
  <path
    d="M73.36,158.47c-4.42,.18-8.61-.69-12.41-2.94-16.28-9.63-32.6-19.21-48.78-29.03-16.29-9.88-16.19-33.57,.11-43.39,15.57-9.39,31.39-18.35,46.79-28,16.81-10.53,37.29,1.6,37.36,21.02,.01,1.17-.03,2.33,.02,3.5,0,.05,0,.1,.01,.15v27.27c-10.71-1.6-20.05-10.42-20.66-22.49-.1-1.91-.02-3.83-.08-5.74-.15-4.28-3.79-6.44-7.41-4.3-14.43,8.53-28.84,17.1-43.23,25.69-4.13,2.47-4.04,6.79,.13,9.28,14.04,8.38,28.09,16.73,42.13,25.11,1.93,1.15,3.82,2.08,6.02,.7,2.1-1.32,2.45-3.37,2.38-5.65-.07-2.16-.09-4.33,.02-6.49,.2-3.59,3.64-5.71,6.77-4.02,3.95,2.11,7.75,4.5,11.58,6.83,1.25,.76,2.06,1.95,2.22,3.45,1.86,17.88-10.76,28.58-22.97,29.05Z"
    style="fill: #19297c;" />
  <path
    d="M159.57,75.62c-15.9,9.47-31.8,18.94-47.71,28.4-4.92,2.92-10.31,3.79-15.4,3.03v-27.27c.23,4.4,3.69,6.37,7.54,4.11,12.65-7.45,25.26-15,37.88-22.51,1.64-.97,3.28-1.95,4.91-2.93,4.32-2.59,4.42-6.8,.12-9.39-11.39-6.83-22.81-13.6-34.22-20.4-2.92-1.74-5.84-3.49-8.79-5.19-3.77-2.17-7.28-.21-7.44,4.18-.09,2.25,.01,4.5-.03,6.74-.11,4.85-3.63,6.92-7.77,4.54-3.45-1.98-6.83-4.1-10.27-6.09-3.04-1.77-2.72-4.67-2.67-6.39C75.82,10.42,87.36-.89,101.52,.06c4.07,.28,7.73,1.73,11.2,3.8,15.69,9.35,31.39,18.66,47.05,28.05,16.49,9.88,16.36,33.84-.2,43.71Z"
    style="fill: #ef7b28;" />
</svg>