<svg viewBox="0 0 24 23" xmlns="http://www.w3.org/2000/svg">
  <path
    d="M12 23C17.9591 23 22.8623 18.4627 23.4477 12.65C23.5105 12.0332 23.0191 11.5 22.4023 11.5C21.8691 11.5 21.4195 11.8973 21.3673 12.42C20.9073 17.1873 16.8823 20.9091 12 20.9091C8.73818 20.9091 5.86318 19.2468 4.18 16.7273H5.72727C6.30227 16.7273 6.77273 16.2568 6.77273 15.6818C6.77273 15.1068 6.30227 14.6364 5.72727 14.6364H1.54545C0.970455 14.6364 0.5 15.1068 0.5 15.6818V19.8636C0.5 20.4386 0.970455 20.9091 1.54545 20.9091C2.12045 20.9091 2.59091 20.4386 2.59091 19.8636V18.1177C4.67136 21.0659 8.11091 23 12 23ZM12 5.20431e-07C6.04091 5.20431e-07 1.13773 4.53727 0.552273 10.35C0.5 10.9668 0.980909 11.5 1.59773 11.5C2.13091 11.5 2.58045 11.1027 2.63273 10.58C3.09273 5.81273 7.11773 2.09091 12 2.09091C15.2618 2.09091 18.1368 3.75318 19.82 6.27273H18.2727C17.6977 6.27273 17.2273 6.74318 17.2273 7.31818C17.2273 7.89318 17.6977 8.36364 18.2727 8.36364H22.4545C23.0295 8.36364 23.5 7.89318 23.5 7.31818V3.13636C23.5 2.56136 23.0295 2.09091 22.4545 2.09091C21.8795 2.09091 21.4091 2.56136 21.4091 3.13636V4.88227C20.3473 3.37346 18.9382 2.14223 17.3006 1.29249C15.663 0.442746 13.8449 -0.000554448 12 5.20431e-07ZM11.08 5.10182C11.08 4.58955 11.4982 4.18182 12 4.18182C12.5018 4.18182 12.92 4.58955 12.92 5.10182V5.48864C14.0386 5.68727 14.7495 6.28318 15.1782 6.84773C15.5336 7.30773 15.3455 7.97682 14.8018 8.20682C14.4255 8.36364 13.9864 8.23818 13.7355 7.91409C13.4427 7.51682 12.92 7.10909 12.0627 7.10909C11.3309 7.10909 10.1705 7.49591 10.1705 8.56227C10.1705 9.55546 11.0695 9.93182 12.9305 10.5486C15.4395 11.4164 16.0773 12.6918 16.0773 14.1555C16.0773 16.8945 13.4636 17.4277 12.92 17.5218V17.9086C12.92 18.4105 12.5123 18.8286 12 18.8286C11.4877 18.8286 11.08 18.4209 11.08 17.9086V17.4695C10.4214 17.3127 9.06227 16.8318 8.26773 15.2741C8.02727 14.8141 8.29909 14.2077 8.78 14.0195C9.20864 13.8523 9.72091 14.0091 9.94045 14.4168C10.275 15.0545 10.9336 15.8491 12.1568 15.8491C13.1291 15.8491 14.2268 15.3473 14.2268 14.1659C14.2268 13.1623 13.495 12.6395 11.8432 12.0436C10.6932 11.6359 8.34091 10.9668 8.34091 8.58318C8.34091 8.47864 8.35136 6.07409 11.08 5.48864V5.10182Z"
  />
</svg>