<svg width="18" height="18" viewBox="0 0 18 18" xmlns="http://www.w3.org/2000/svg">
  <path id="icon" fill-rule="evenodd" clip-rule="evenodd"
    d="M12.4303 0.95561C13.7044 -0.318537 15.7702 -0.318537 17.0444 0.955611C18.3185 2.22976 18.3185 4.29556 17.0444 5.56971L6.09572 16.5184C5.99047 16.6236 5.85924 16.6992 5.71536 16.7373L1.06003 17.9718C0.76884 18.049 0.458568 17.9651 0.245968 17.7517C0.0333686 17.5382 -0.0493005 17.2276 0.0290682 16.9367L1.29056 12.2544C1.32898 12.1118 1.40418 11.9817 1.50864 11.8773L12.4303 0.95561ZM15.8511 2.14885C15.236 1.53371 14.2387 1.53371 13.6235 2.14885L12.7042 3.06818L14.9318 5.29579L15.8511 4.37647C16.4663 3.76133 16.4663 2.76399 15.8511 2.14885ZM13.7386 6.48904L11.511 4.26142L2.86131 12.9111L2.0381 15.9666L5.06317 15.1644L9.40088 10.8267L13.7386 6.48904Z" />
</svg>