<svg width="35" height="35" viewBox="0 0 35 35" fill="none" xmlns="http://www.w3.org/2000/svg">
<g id="edit">
<circle id="ellipse" cx="17.5" cy="17.5" r="17.5" fill="#F4F5FA"/>
<path id="vector" d="M25.249 14.1976L23.8833 15.6683C23.7441 15.8182 23.5189 15.8182 23.3797 15.6683L20.0915 12.1271C19.9522 11.9772 19.9522 11.7347 20.0915 11.5848L21.4571 10.1141C22.0111 9.51751 22.9117 9.51751 23.4686 10.1141L25.249 12.0314C25.8059 12.628 25.8059 13.5978 25.249 14.1976ZM18.9184 12.8481L11.1392 21.2257L10.5111 25.1018C10.4252 25.625 10.8489 26.078 11.3347 25.9887L14.934 25.3092L22.7132 16.9316C22.8524 16.7817 22.8524 16.5392 22.7132 16.3893L19.4249 12.8481C19.2827 12.6982 19.0576 12.6982 18.9184 12.8481ZM14.1756 20.5079C14.0127 20.3324 14.0127 20.0517 14.1756 19.8762L18.7377 14.9632C18.9006 14.7878 19.1613 14.7878 19.3242 14.9632C19.4871 15.1387 19.4871 15.4194 19.3242 15.5949L14.7622 20.5079C14.5992 20.6833 14.3385 20.6833 14.1756 20.5079ZM13.1062 23.1908H14.5281V24.3489L12.6174 24.7094L11.6961 23.7172L12.0308 21.6595H13.1062V23.1908Z" fill="#19297C"/>
</g>
</svg>
