<svg viewBox="0 0 20 24" xmlns="http://www.w3.org/2000/svg">
  <path
    d="M0.5 12C0.5 12.3183 0.625111 12.6235 0.847811 12.8485C1.07051 13.0736 1.37256 13.2 1.6875 13.2H10.7006L7.96938 15.948C7.85807 16.0596 7.76973 16.1923 7.70944 16.3385C7.64915 16.4847 7.61811 16.6416 7.61811 16.8C7.61811 16.9584 7.64915 17.1153 7.70944 17.2615C7.76973 17.4077 7.85807 17.5404 7.96938 17.652C8.07977 17.7645 8.21111 17.8537 8.35581 17.9147C8.50052 17.9756 8.65574 18.007 8.8125 18.007C8.96926 18.007 9.12448 17.9756 9.26919 17.9147C9.41389 17.8537 9.54523 17.7645 9.65563 17.652L14.4056 12.852C14.5137 12.7379 14.5985 12.6033 14.655 12.456C14.7738 12.1638 14.7738 11.8362 14.655 11.544C14.5985 11.3967 14.5137 11.2621 14.4056 11.148L9.65563 6.348C9.5449 6.23611 9.41346 6.14736 9.2688 6.08681C9.12413 6.02626 8.96908 5.99509 8.8125 5.99509C8.65592 5.99509 8.50087 6.02626 8.3562 6.08681C8.21154 6.14736 8.0801 6.23611 7.96938 6.348C7.85865 6.45989 7.77083 6.59271 7.7109 6.7389C7.65098 6.88509 7.62014 7.04177 7.62014 7.2C7.62014 7.35823 7.65098 7.51491 7.7109 7.6611C7.77083 7.80729 7.85865 7.94011 7.96938 8.052L10.7006 10.8H1.6875C1.37256 10.8 1.07051 10.9264 0.847811 11.1515C0.625111 11.3765 0.5 11.6817 0.5 12ZM15.9375 0H4.0625C3.11767 0 2.21153 0.379285 1.54343 1.05442C0.875334 1.72955 0.5 2.64522 0.5 3.6V7.2C0.5 7.51826 0.625111 7.82348 0.847811 8.04853C1.07051 8.27357 1.37256 8.4 1.6875 8.4C2.00244 8.4 2.30449 8.27357 2.52719 8.04853C2.74989 7.82348 2.875 7.51826 2.875 7.2V3.6C2.875 3.28174 3.00011 2.97652 3.22281 2.75147C3.44551 2.52643 3.74756 2.4 4.0625 2.4H15.9375C16.2524 2.4 16.5545 2.52643 16.7772 2.75147C16.9999 2.97652 17.125 3.28174 17.125 3.6V20.4C17.125 20.7183 16.9999 21.0235 16.7772 21.2485C16.5545 21.4736 16.2524 21.6 15.9375 21.6H4.0625C3.74756 21.6 3.44551 21.4736 3.22281 21.2485C3.00011 21.0235 2.875 20.7183 2.875 20.4V16.8C2.875 16.4817 2.74989 16.1765 2.52719 15.9515C2.30449 15.7264 2.00244 15.6 1.6875 15.6C1.37256 15.6 1.07051 15.7264 0.847811 15.9515C0.625111 16.1765 0.5 16.4817 0.5 16.8V20.4C0.5 21.3548 0.875334 22.2705 1.54343 22.9456C2.21153 23.6207 3.11767 24 4.0625 24H15.9375C16.8823 24 17.7885 23.6207 18.4566 22.9456C19.1247 22.2705 19.5 21.3548 19.5 20.4V3.6C19.5 2.64522 19.1247 1.72955 18.4566 1.05442C17.7885 0.379285 16.8823 0 15.9375 0Z" />
</svg>