<svg width="44" height="45" viewBox="0 0 44 45" xmlns="http://www.w3.org/2000/svg">
  <g id="vector">
    <path
      d="M31.156 26.8C31.324 25.381 31.45 23.962 31.45 22.5C31.45 21.038 31.324 19.619 31.156 18.2H38.254C38.59 19.576 38.8 21.0165 38.8 22.5C38.8 23.9835 38.59 25.424 38.254 26.8M27.439 38.754C28.699 36.3675 29.665 33.7875 30.337 31.1H36.532C34.4975 34.6868 31.2696 37.4038 27.439 38.754ZM26.914 26.8H17.086C16.876 25.381 16.75 23.962 16.75 22.5C16.75 21.038 16.876 19.5975 17.086 18.2H26.914C27.103 19.5975 27.25 21.038 27.25 22.5C27.25 23.962 27.103 25.381 26.914 26.8ZM22 39.614C20.257 37.034 18.85 34.1745 17.989 31.1H26.011C25.15 34.1745 23.743 37.034 22 39.614ZM13.6 13.9H7.468C9.4816 10.3035 12.7071 7.5822 16.54 6.246C15.28 8.6325 14.335 11.2125 13.6 13.9ZM7.468 31.1H13.6C14.335 33.7875 15.28 36.3675 16.54 38.754C12.7151 37.4031 9.49418 34.6856 7.468 31.1ZM5.746 26.8C5.41 25.424 5.2 23.9835 5.2 22.5C5.2 21.0165 5.41 19.576 5.746 18.2H12.844C12.676 19.619 12.55 21.038 12.55 22.5C12.55 23.962 12.676 25.381 12.844 26.8M22 5.3645C23.743 7.9445 25.15 10.8255 26.011 13.9H17.989C18.85 10.8255 20.257 7.9445 22 5.3645ZM36.532 13.9H30.337C29.6797 11.2371 28.7065 8.66668 27.439 6.246C31.303 7.6005 34.516 10.331 36.532 13.9ZM22 1C10.387 1 1 10.675 1 22.5C1 28.2022 3.21249 33.6708 7.15076 37.7028C9.10079 39.6993 11.4158 41.2829 13.9636 42.3634C16.5115 43.4439 19.2422 44 22 44C27.5695 44 32.911 41.7348 36.8492 37.7028C40.7875 33.6708 43 28.2022 43 22.5C43 19.6766 42.4568 16.8808 41.4015 14.2723C40.3461 11.6638 38.7993 9.29366 36.8492 7.2972C34.8992 5.30074 32.5842 3.71707 30.0364 2.63659C27.4885 1.55611 24.7578 1 22 1Z" />
    <path
      d="M31.156 26.8C31.324 25.381 31.45 23.962 31.45 22.5C31.45 21.038 31.324 19.619 31.156 18.2H38.254C38.59 19.576 38.8 21.0165 38.8 22.5C38.8 23.9835 38.59 25.424 38.254 26.8M5.746 26.8C5.41 25.424 5.2 23.9835 5.2 22.5C5.2 21.0165 5.41 19.576 5.746 18.2H12.844C12.676 19.619 12.55 21.038 12.55 22.5C12.55 23.962 12.676 25.381 12.844 26.8M27.439 38.754C28.699 36.3675 29.665 33.7875 30.337 31.1H36.532C34.4975 34.6868 31.2696 37.4038 27.439 38.754ZM26.914 26.8H17.086C16.876 25.381 16.75 23.962 16.75 22.5C16.75 21.038 16.876 19.5975 17.086 18.2H26.914C27.103 19.5975 27.25 21.038 27.25 22.5C27.25 23.962 27.103 25.381 26.914 26.8ZM22 39.614C20.257 37.034 18.85 34.1745 17.989 31.1H26.011C25.15 34.1745 23.743 37.034 22 39.614ZM13.6 13.9H7.468C9.4816 10.3035 12.7071 7.5822 16.54 6.246C15.28 8.6325 14.335 11.2125 13.6 13.9ZM7.468 31.1H13.6C14.335 33.7875 15.28 36.3675 16.54 38.754C12.7151 37.4031 9.49418 34.6856 7.468 31.1ZM22 5.3645C23.743 7.9445 25.15 10.8255 26.011 13.9H17.989C18.85 10.8255 20.257 7.9445 22 5.3645ZM36.532 13.9H30.337C29.6797 11.2371 28.7065 8.66668 27.439 6.246C31.303 7.6005 34.516 10.331 36.532 13.9ZM22 1C10.387 1 1 10.675 1 22.5C1 28.2022 3.21249 33.6708 7.15076 37.7028C9.10079 39.6993 11.4158 41.2829 13.9636 42.3634C16.5115 43.4439 19.2422 44 22 44C27.5695 44 32.911 41.7348 36.8492 37.7028C40.7875 33.6708 43 28.2022 43 22.5C43 19.6766 42.4568 16.8808 41.4015 14.2723C40.3461 11.6638 38.7993 9.29366 36.8492 7.2972C34.8992 5.30074 32.5842 3.71707 30.0364 2.63659C27.4885 1.55611 24.7578 1 22 1Z" />
  </g>
</svg>