<svg width="30" height="45" viewBox="0 0 30 45" xmlns="http://www.w3.org/2000/svg">
  <g id="vector">
    <path id="v"
      d="M10.81 36.1288C10.4726 36.4743 10.2833 36.9426 10.2833 37.4306C10.2833 37.9187 10.4726 38.387 10.81 38.7325C11.1475 39.078 11.6055 39.2723 12.0833 39.2723H17.9166C18.3944 39.2723 18.8523 39.078 19.1898 38.7325C19.5272 38.387 19.7166 37.9187 19.7166 37.4306C19.7166 36.9426 19.5272 36.4743 19.1898 36.1288C18.8523 35.7833 18.3944 35.589 17.9166 35.589H12.0833C11.6055 35.589 11.1475 35.7833 10.81 36.1288Z"
      stroke-width="0.1" />
    <path id="v_2"
      d="M3.01448 3.06413C1.69249 4.4176 0.95 6.25306 0.95 8.16667V36.8333C0.95 38.7469 1.69249 40.5824 3.01448 41.9359C4.33652 43.2894 6.12984 44.05 8 44.05H22C23.8702 44.05 25.6635 43.2894 26.9855 41.9359C28.3075 40.5824 29.05 38.7469 29.05 36.8333V8.16667C29.05 6.25306 28.3075 4.4176 26.9855 3.06413C25.6635 1.71062 23.8702 0.95 22 0.95H8C6.12984 0.95 4.33652 1.71062 3.01448 3.06413ZM10.2833 4.63333V6.375C10.2833 7.3905 11.0886 8.21667 12.0833 8.21667H17.9167C18.3944 8.21667 18.8524 8.02234 19.1899 7.67684C19.5273 7.33137 19.7167 6.86307 19.7167 6.375V4.63333H22C22.9146 4.63333 23.792 5.0053 24.4391 5.6678C25.0862 6.33035 25.45 7.22919 25.45 8.16667V36.8333C25.45 37.7708 25.0862 38.6697 24.4391 39.3322C23.792 39.9947 22.9146 40.3667 22 40.3667H8C7.08539 40.3667 6.20799 39.9947 5.56089 39.3322C4.91376 38.6697 4.55 37.7708 4.55 36.8333V8.16667C4.55 7.22919 4.91376 6.33035 5.56089 5.6678C6.20799 5.0053 7.08539 4.63333 8 4.63333H10.2833Z"
      stroke-width="0.1" />
  </g>
</svg>