<svg viewBox="0 0 24 21" xmlns="http://www.w3.org/2000/svg">
<path d="M22.125 0C22.3828 0 22.625 0.0596591 22.8516 0.178977C23.0781 0.298295 23.2773 0.472301 23.4492 0.700994C23.6211 0.929688 23.7539 1.18324 23.8477 1.46165C23.9414 1.74006 23.9922 2.0483 24 2.38636V18.6136C24 18.9418 23.9531 19.25 23.8594 19.5384C23.7656 19.8267 23.6289 20.0803 23.4492 20.299C23.2695 20.5178 23.0703 20.6868 22.8516 20.8061C22.6328 20.9254 22.3906 20.9901 22.125 21H1.875C1.61719 21 1.375 20.9403 1.14844 20.821C0.921875 20.7017 0.722656 20.5277 0.550781 20.299C0.378906 20.0703 0.246094 19.8168 0.152344 19.5384C0.0585938 19.2599 0.0078125 18.9517 0 18.6136V2.38636C0 2.05824 0.046875 1.75 0.140625 1.46165C0.234375 1.1733 0.371094 0.919744 0.550781 0.700994C0.730469 0.482244 0.929688 0.31321 1.14844 0.193892C1.36719 0.0745739 1.60938 0.00994318 1.875 0H22.125ZM1.875 1.90909C1.76562 1.90909 1.67578 1.95384 1.60547 2.04332C1.53516 2.13281 1.5 2.24716 1.5 2.38636V5.72727H22.5V2.38636C22.5 2.24716 22.4648 2.13281 22.3945 2.04332C22.3242 1.95384 22.2344 1.90909 22.125 1.90909H1.875ZM22.125 19.0909C22.2344 19.0909 22.3242 19.0462 22.3945 18.9567C22.4648 18.8672 22.5 18.7528 22.5 18.6136V7.63636H1.5V18.6136C1.5 18.7528 1.53516 18.8672 1.60547 18.9567C1.67578 19.0462 1.76562 19.0909 1.875 19.0909H22.125ZM16.5 13.3636H19.5V15.2727H16.5V13.3636Z"/>
</svg>
