<?xml version="1.0" encoding="UTF-8"?>
<svg id="_Слой_2" data-name="Слой 2" xmlns="http://www.w3.org/2000/svg" viewBox="0 0 44 47">
  <g id="_Слой_1-2" data-name="Слой 1">
    <g>
      <path d="M30.05,9.67l2.46-3.13c.05-.06,.09-.13,.13-.19,.38-.63,.59-1.36,.61-2.1,.01-.74-.17-1.47-.54-2.11-.36-.64-.89-1.18-1.53-1.55-.63-.37-1.36-.57-2.11-.58H14.92c-.74,0-1.46,.21-2.1,.58-.64,.37-1.17,.91-1.53,1.55-.36,.64-.55,1.37-.54,2.11,.01,.74,.22,1.47,.61,2.1,.04,.07,.08,.13,.13,.19l2.47,3.17C4.45,15.06,0,22.15,0,31.86s8.02,15.14,22,15.14,22-5.54,22-15.21-4.45-16.79-13.95-22.12Zm-8.05,33.33c-6.72,0-18-1.45-18-11.14,0-8.84,4.28-14.92,13.89-19.71,.54-.27,.92-.76,1.06-1.35,.13-.58,0-1.2-.37-1.67l-2.82-3.71c-.44-.58-.03-1.41,.69-1.41,2.79,0,8.18,0,10.91,0,.71,0,1.13,.8,.72,1.38-1.07,1.51-2.65,3.7-2.65,3.7-.37,.47-.51,1.09-.38,1.68,.13,.59,.52,1.08,1.06,1.35,9.6,4.76,13.89,10.83,13.89,19.68,0,9.75-11.28,11.21-18,11.21Z"/>
      <path d="M21.87,24.87c-.46,.03-.89-.11-1.24-.4-.29-.24-.48-.56-.57-.92,.08-.35,.27-.67,.56-.91,.34-.29,.78-.42,1.23-.39,.09,0,.18,0,.27,0,.33-.02,.66,.03,.96,.15,.3,.12,.57,.3,.79,.54,.76,.81,2.02,.85,2.83,.09,.81-.76,.85-2.02,.09-2.83-.62-.66-1.4-1.19-2.24-1.52-.18-.07-.37-.13-.55-.19v-1.51c0-1.1-.9-2-2-2s-2,.9-2,2v1.53c-.7,.22-1.36,.57-1.94,1.05-1.15,.96-1.87,2.31-2.01,3.8-.01,.13-.01,.27,0,.4,.16,1.48,.87,2.82,2.02,3.77,1.14,.95,2.59,1.41,4.07,1.32,.46-.03,.89,.11,1.24,.4,.29,.24,.48,.55,.57,.91-.08,.35-.28,.67-.57,.91-.35,.29-.79,.43-1.24,.4-.07,0-.14,0-.22,0-.33,.01-.66-.05-.96-.18-.3-.13-.56-.33-.77-.57-.72-.84-1.98-.94-2.82-.23-.84,.72-.94,1.98-.23,2.82,.6,.71,1.37,1.28,2.22,1.65,.21,.09,.42,.17,.64,.23v1.68c0,1.1,.9,2,2,2s2-.9,2-2v-1.68c.7-.22,1.36-.57,1.94-1.05,1.15-.95,1.86-2.29,2.02-3.77,.02-.14,.02-.28,0-.42-.16-1.48-.87-2.82-2.02-3.77-1.14-.95-2.59-1.41-4.07-1.32Z"/>
    </g>
  </g>
</svg>