<svg viewBox="0 0 24 25" xmlns="http://www.w3.org/2000/svg">
  <path
    d="M6.39291 19.1538L6.39288 19.1538C5.83433 19.235 5.41343 19.7213 5.41343 20.3054V20.3059C5.4127 20.5604 5.49626 20.8082 5.65127 21.0108C5.82396 21.2348 5.99935 21.4567 6.1774 21.6765C6.20965 21.6848 6.24249 21.6932 6.27567 21.7017C6.44668 21.7454 6.62681 21.7915 6.78273 21.8354C6.90242 21.8691 7.01293 21.9029 7.09833 21.935C7.14071 21.9509 7.18089 21.9679 7.21429 21.9859C7.23101 21.995 7.24892 22.0058 7.2656 22.0187C7.28086 22.0305 7.30353 22.0504 7.32069 22.0797C7.33987 22.1126 7.35499 22.1636 7.33557 22.2204C7.31821 22.2711 7.28196 22.2997 7.2599 22.3136C7.21806 22.3399 7.16602 22.3514 7.12443 22.3583C7.0326 22.3736 6.89058 22.3808 6.69242 22.3808H6.4399H6.36992L6.32496 22.3271C6.21801 22.1996 6.11196 22.0713 6.00683 21.9423C5.98422 21.9364 5.96189 21.9306 5.93992 21.9248C5.82127 21.8935 5.71277 21.8636 5.62993 21.837C5.58881 21.8237 5.55073 21.8103 5.51966 21.7968C5.50422 21.7901 5.48764 21.7822 5.47212 21.773C5.45959 21.7655 5.43434 21.7495 5.41366 21.7227C5.34448 21.6334 5.22667 21.5412 5.07251 21.4406C4.98219 21.3817 4.8902 21.3265 4.79497 21.2693C4.72445 21.227 4.65216 21.1836 4.57747 21.1368C4.41071 21.0324 4.24321 20.9178 4.11672 20.7888C3.99026 20.6598 3.88857 20.4999 3.88857 20.306C3.88857 18.9896 4.84277 17.8437 6.17271 17.6503C10.5091 17.019 13.5267 17.0762 17.8356 17.6702C19.1524 17.8515 20.1116 18.9805 20.1117 20.2894C20.1117 20.2895 20.1117 20.2895 20.1117 20.2896H19.9616C19.9619 20.6308 19.6558 20.783 19.3315 20.9442C19.1117 21.0535 18.8836 21.1669 18.7368 21.3462L6.39291 19.1538ZM6.39291 19.1538C10.5691 18.5461 13.4411 18.5981 17.6262 19.1753C17.8944 19.2141 18.1393 19.3482 18.3158 19.5526C18.4923 19.7572 18.5886 20.0184 18.5868 20.288V20.289C18.5868 20.5477 18.4974 20.7981 18.3374 20.9929L18.3373 20.9929C18.2702 21.0746 18.2028 21.156 18.135 21.2371M6.39291 19.1538L18.135 21.2371M18.135 21.2371C18.1078 21.2426 18.0823 21.2486 18.0583 21.2551C17.9033 21.2969 17.7933 21.3645 17.7322 21.4666C17.6731 21.5655 17.6791 21.668 17.6824 21.722C17.6827 21.7271 17.6829 21.7317 17.6832 21.7358C17.684 21.7494 17.6846 21.7584 17.6848 21.7653L17.3638 22.1304L17.3632 22.1311L17.5878 22.33C17.702 22.2018 17.8153 22.0729 17.9278 21.9432L17.9278 21.9433L17.9292 21.9416C18.0516 21.8004 18.173 21.6582 18.2933 21.5152L18.135 21.2371ZM13.3491 14.4312C12.9214 14.6077 12.463 14.6985 12.0001 14.6985C11.0652 14.6985 10.1686 14.3285 9.50767 13.6701C8.84675 13.0118 8.47556 12.119 8.47556 11.1882C8.47556 10.2573 8.84675 9.36454 9.50767 8.70617C10.1686 8.04779 11.0652 7.67781 12.0001 7.67781C12.463 7.67781 12.9214 7.76864 13.3491 7.9451C13.7768 8.12156 14.1653 8.38018 14.4926 8.70617C14.8198 9.03217 15.0794 9.41914 15.2565 9.845C15.4335 10.2708 15.5247 10.7273 15.5247 11.1882C15.5247 11.6491 15.4335 12.1055 15.2565 12.5313C15.0794 12.9572 14.8198 13.3442 14.4926 13.6701C14.1653 13.9961 13.7768 14.2548 13.3491 14.4312ZM12.0001 16.2186C13.3391 16.2186 14.6234 15.6888 15.5704 14.7454C16.5174 13.8021 17.0495 12.5225 17.0495 11.1882C17.0495 9.85381 16.5174 8.57423 15.5704 7.63088C14.6234 6.68755 13.3391 6.15769 12.0001 6.15769C10.6611 6.15769 9.37684 6.68755 8.42985 7.63088C7.48284 8.57423 6.9507 9.85381 6.9507 11.1882C6.9507 12.5225 7.48284 13.8021 8.42985 14.7454C9.37684 15.6888 10.6611 16.2186 12.0001 16.2186Z" />
  <path
    d="M22.2 12.5C22.2 18.1332 17.6332 22.7 12 22.7C6.36677 22.7 1.8 18.1332 1.8 12.5C1.8 6.86677 6.36677 2.3 12 2.3C17.6332 2.3 22.2 6.86677 22.2 12.5ZM12 24.15C18.4343 24.15 23.65 18.9343 23.65 12.5C23.65 6.06571 18.4343 0.85 12 0.85C5.56571 0.85 0.35 6.06571 0.35 12.5C0.35 18.9343 5.56571 24.15 12 24.15Z" />
</svg>