<svg viewBox="0 0 24 23" fill="none" xmlns="http://www.w3.org/2000/svg">
  <g id="service">
    <path
      d="M7.96154 1H3.11538C2.22323 1 1.5 1.72323 1.5 2.61538V7.46154C1.5 8.35369 2.22323 9.07692 3.11538 9.07692H7.96154C8.85369 9.07692 9.57692 8.35369 9.57692 7.46154V2.61538C9.57692 1.72323 8.85369 1 7.96154 1Z"
      stroke-linecap="round" stroke-linejoin="round" />
    <path
      d="M20.8844 1H16.0382C15.1461 1 14.4229 1.72323 14.4229 2.61538V7.46154C14.4229 8.35369 15.1461 9.07692 16.0382 9.07692H20.8844C21.7765 9.07692 22.4998 8.35369 22.4998 7.46154V2.61538C22.4998 1.72323 21.7765 1 20.8844 1Z"
      stroke-linecap="round" stroke-linejoin="round" />
    <path
      d="M7.96154 13.9231H3.11538C2.22323 13.9231 1.5 14.6463 1.5 15.5384V20.3846C1.5 21.2768 2.22323 22 3.11538 22H7.96154C8.85369 22 9.57692 21.2768 9.57692 20.3846V15.5384C9.57692 14.6463 8.85369 13.9231 7.96154 13.9231Z"
      stroke-linecap="round" stroke-linejoin="round" />
    <path
      d="M20.8844 13.9231H16.0382C15.1461 13.9231 14.4229 14.6463 14.4229 15.5384V20.3846C14.4229 21.2768 15.1461 22 16.0382 22H20.8844C21.7765 22 22.4998 21.2768 22.4998 20.3846V15.5384C22.4998 14.6463 21.7765 13.9231 20.8844 13.9231Z"
      stroke-linecap="round" stroke-linejoin="round" />
  </g>
</svg>