<svg width="40" height="40" viewBox="0 0 40 40" xmlns="http://www.w3.org/2000/svg">
  <path id="vector"
    d="M0 20C0 23.9556 1.17298 27.8224 3.37061 31.1114C5.56823 34.4004 8.69181 36.9638 12.3463 38.4776C16.0008 39.9913 20.0222 40.3874 23.9018 39.6157C27.7814 38.844 31.3451 36.9392 34.1421 34.1421C36.9392 31.3451 38.844 27.7814 39.6157 23.9018C40.3874 20.0222 39.9913 16.0009 38.4776 12.3463C36.9638 8.69181 34.4004 5.56823 31.1114 3.37061C27.8224 1.17298 23.9556 0 20 0C14.6974 0.00559998 9.61356 2.11454 5.86405 5.86405C2.11453 9.61356 0.00559965 14.6974 0 20ZM36.9231 20C36.9231 23.3471 35.9305 26.619 34.071 29.402C32.2115 32.1849 29.5685 34.354 26.4762 35.6349C23.3839 36.9157 19.9812 37.2509 16.6985 36.5979C13.4157 35.9449 10.4003 34.3331 8.03358 31.9664C5.66684 29.5997 4.05508 26.5843 3.40209 23.3015C2.74911 20.0188 3.08425 16.6161 4.36511 13.5238C5.64598 10.4315 7.81505 7.78851 10.598 5.92897C13.381 4.06944 16.6529 3.07692 20 3.07692C24.4867 3.08201 28.7882 4.86661 31.9608 8.0392C35.1334 11.2118 36.918 15.5133 36.9231 20ZM20.45 12.7577C20.5929 12.6146 20.7626 12.5012 20.9493 12.4237C21.1361 12.3463 21.3363 12.3065 21.5385 12.3065C21.7406 12.3065 21.9408 12.3463 22.1276 12.4237C22.3144 12.5012 22.484 12.6146 22.6269 12.7577L28.7808 18.9115C28.9238 19.0544 29.0373 19.2241 29.1147 19.4109C29.1921 19.5976 29.232 19.7978 29.232 20C29.232 20.2022 29.1921 20.4024 29.1147 20.5891C29.0373 20.7759 28.9238 20.9456 28.7808 21.0885L22.6269 27.2423C22.3382 27.531 21.9467 27.6932 21.5385 27.6932C21.1302 27.6932 20.7387 27.531 20.45 27.2423C20.1613 26.9536 19.9991 26.5621 19.9991 26.1538C19.9991 25.7456 20.1613 25.3541 20.45 25.0654L23.9788 21.5385H12.3077C11.8997 21.5385 11.5084 21.3764 11.2198 21.0879C10.9313 20.7993 10.7692 20.408 10.7692 20C10.7692 19.592 10.9313 19.2007 11.2198 18.9121C11.5084 18.6236 11.8997 18.4615 12.3077 18.4615H23.9788L20.45 14.9346C20.307 14.7917 20.1935 14.6221 20.1161 14.4353C20.0386 14.2485 19.9988 14.0483 19.9988 13.8462C19.9988 13.644 20.0386 13.4438 20.1161 13.257C20.1935 13.0702 20.307 12.9006 20.45 12.7577Z" />
</svg>