<svg width="45" height="45" viewBox="0 0 45 45" xmlns="http://www.w3.org/2000/svg">
  <path id="vector"
    d="M21.8229 0.863045L21.7595 0.834706L21.6969 0.864763L0.935108 10.8271L0.85 10.8679V10.9623V16.1453V16.2953H1H44H44.15V16.1453V10.9348V10.8376L44.0612 10.7979L21.8229 0.863045ZM0.85 44V44.15H1H44H44.15V44V34.7151V34.5651H44H1H0.85V34.7151V44ZM6.01667 18.138H5.86667V18.288V32.5724V32.7224H6.01667H8.88333H9.03333V32.5724V18.288V18.138H8.88333H6.01667ZM36.1167 18.138H35.9667V18.288V32.5724V32.7224H36.1167H38.9833H39.1333V32.5724V18.288V18.138H38.9833H36.1167ZM16.05 18.138H15.9V18.288V32.5724V32.7224H16.05H18.9167H19.0667V32.5724V18.288V18.138H18.9167H16.05ZM26.0833 18.138H25.9333V18.288V32.5724V32.7224H26.0833H28.95H29.1V32.5724V18.288V18.138H28.95H26.0833ZM40.9833 13.1384H4.01667V12.8519L21.8072 4.31538L40.9833 12.8823V13.1384ZM4.01667 37.722H40.9833V40.9931H4.01667V37.722Z"
    stroke-width="0.3" />
</svg>