<svg width="20" height="19" viewBox="0 0 20 19" xmlns="http://www.w3.org/2000/svg">
  <path id="vector"
    d="M19.2517 4.61352L19.2517 4.61353C20.1852 5.54933 19.5784 7.12763 18.3053 7.23343L18.1641 7.23949L1.5783 7.23949C1.21143 7.23931 0.858625 7.09765 0.593004 6.84375C0.327374 6.58985 0.169298 6.24316 0.151653 5.87549C0.134007 5.50782 0.25815 5.1475 0.498257 4.86918C0.737587 4.59176 1.07383 4.41703 1.43765 4.38076L1.58188 4.37373L14.6093 4.37373H14.9708L14.7155 4.1178L13.1996 2.59823L13.1994 2.59804C12.9395 2.33844 12.7891 1.98853 12.7794 1.62072C12.7697 1.25291 12.9015 0.895506 13.1474 0.622512C13.3933 0.349528 13.7344 0.181855 14.1 0.154093C14.4645 0.126422 14.8257 0.239843 15.1093 0.471021L15.2237 0.574591L19.2517 4.61352ZM5.89918 18.8459C5.53472 18.8736 5.17353 18.7602 4.88992 18.529L4.77556 18.4254L0.747561 14.3865L0.747547 14.3865C-0.185968 13.4507 0.420811 11.8723 1.69394 11.7666L1.83514 11.7605L18.421 11.7605C18.7999 11.7605 19.1633 11.9114 19.4313 12.1801C19.6994 12.4487 19.85 12.8132 19.85 13.1934C19.85 13.5497 19.7176 13.8932 19.4787 14.1568C19.2406 14.4196 18.9138 14.5843 18.5616 14.6192L18.4173 14.6263L5.38996 14.6263H5.02845L5.28376 14.8822L6.79961 16.4018L6.7998 16.402C7.0597 16.6616 7.21012 17.0115 7.2198 17.3793C7.22949 17.7471 7.0977 18.1045 6.85183 18.3775C6.60596 18.6505 6.26486 18.8181 5.89918 18.8459Z"
    stroke-width="0.3" />
</svg>