<svg viewBox="0 0 24 23" xmlns="http://www.w3.org/2000/svg">
<path d="M22.883 18.3839L22.8828 18.3841L18.884 22.3832C18.6491 22.6181 18.3306 22.75 17.9986 22.75C17.6665 22.75 17.348 22.6181 17.1131 22.3832C16.8783 22.1484 16.7464 21.8299 16.7464 21.4977C16.7464 21.1656 16.8783 20.8471 17.1131 20.6122L18.5513 19.1765L18.979 18.7496H18.3747H2.00449C1.67309 18.7496 1.35527 18.6179 1.12092 18.3835C0.886585 18.1492 0.754931 17.8313 0.754931 17.4999C0.754931 17.1685 0.886586 16.8506 1.12092 16.6162C1.35526 16.3819 1.67309 16.2502 2.00449 16.2502H18.3747H18.9786L18.5514 15.8234L17.1119 14.385C17.1119 14.385 17.1119 14.385 17.1118 14.385C17.1118 14.385 17.1118 14.385 17.1118 14.385C16.877 14.1501 16.7451 13.8316 16.7451 13.4995C16.7451 13.1674 16.8771 12.8489 17.1119 12.6141C17.3467 12.3792 17.6652 12.2473 17.9973 12.2473C18.3294 12.2473 18.6479 12.3792 18.8827 12.6141L22.8815 16.6132L22.882 16.6136C22.9985 16.7296 23.091 16.8675 23.1542 17.0194C23.2173 17.1712 23.2499 17.3341 23.25 17.4985C23.2501 17.663 23.2177 17.8259 23.1547 17.9778C23.0918 18.1298 22.9994 18.2678 22.883 18.3839ZM5.62843 6.75227H5.02491L5.45165 7.17904L6.88748 8.61496C7.1223 8.84981 7.25423 9.16833 7.25423 9.50045C7.25423 9.83258 7.1223 10.1511 6.88748 10.3859C6.65265 10.6208 6.33416 10.7527 6.00207 10.7527C5.66998 10.7527 5.35149 10.6208 5.11666 10.3859L1.11784 6.38685L1.11753 6.38654C1.00104 6.27044 0.908604 6.13249 0.845535 5.98059C0.782466 5.82869 0.75 5.66583 0.75 5.50136C0.75 5.33688 0.782466 5.17403 0.845535 5.02213C0.908604 4.87023 1.00104 4.73227 1.11753 4.61618L1.11784 4.61587L5.11666 0.616773C5.35149 0.38193 5.66998 0.25 6.00207 0.25C6.33416 0.25 6.65265 0.38193 6.88748 0.616773C7.1223 0.851617 7.25423 1.17014 7.25423 1.50226C7.25423 1.83439 7.1223 2.15291 6.88748 2.38775L6.88732 2.38791L5.45149 3.82633L5.02565 4.25295H5.62843H21.9986C22.33 4.25295 22.6479 4.3846 22.8822 4.61896C23.1165 4.85331 23.2482 5.17117 23.2482 5.50261C23.2482 5.83404 23.1165 6.1519 22.8822 6.38626C22.6479 6.62061 22.33 6.75227 21.9986 6.75227H5.62843Z"/>
</svg>
