<?xml version="1.0" encoding="UTF-8"?>
<svg xmlns="http://www.w3.org/2000/svg" viewBox="0 0 42 47">
  <g>
    <g>
      <path
        d="M33.67,9.21h-7.73l5.96-5.78c.79-.77,.81-2.04,.04-2.83-.77-.79-2.03-.81-2.83-.04l-8.11,7.86L12.89,.56c-.79-.77-2.06-.75-2.83,.04-.77,.79-.75,2.06,.04,2.83l5.96,5.78h-7.73C3.74,9.21,0,12.87,0,17.36v15.36c0,4.49,3.74,8.14,8.33,8.14h25.33c4.6,0,8.33-3.65,8.33-8.14v-15.36c0-4.49-3.74-8.14-8.33-8.14Zm4.33,23.5c0,2.28-1.94,4.14-4.33,4.14H8.33c-2.39,0-4.33-1.86-4.33-4.14v-15.36c0-2.28,1.94-4.14,4.33-4.14h25.33c2.39,0,4.33,1.86,4.33,4.14v15.36Z"
      />
      <path d="M27.33,43H14.67c-1.1,0-2,.9-2,2s.9,2,2,2h12.67c1.1,0,2-.9,2-2s-.9-2-2-2Z"
      />
    </g>
  </g>
</svg>