<?xml version="1.0" encoding="UTF-8"?>
<svg id="_Слой_2" data-name="Слой 2" xmlns="http://www.w3.org/2000/svg" viewBox="0 0 35.5 42.42">
  <g id="_Слой_1-2" data-name="Слой 1">
    <path id="vector" d="M19.32,33.59c-.28-.26-.64-.38-1.1-.34h-.01c-.16,.01-.3,.02-.46,.02-1.45,0-2.98-.42-4.56-1.26-1.81-.96-2.93-2.69-3.39-5.15-.07-.33-.23-.6-.5-.81-.28-.22-.59-.33-.95-.33-.45,0-.82,.16-1.1,.49-.29,.31-.38,.67-.28,1.09h0c.62,3.21,2.09,5.47,4.38,6.83,2.12,1.25,4.26,1.87,6.4,1.86,.19,0,.4,0,.6-.02,.39-.03,.72-.18,1-.44,.27-.26,.4-.56,.4-.92,0-.44-.15-.77-.43-1.02Zm0,0c-.28-.26-.64-.38-1.1-.34h-.01c-.16,.01-.3,.02-.46,.02-1.45,0-2.98-.42-4.56-1.26-1.81-.96-2.93-2.69-3.39-5.15-.07-.33-.23-.6-.5-.81-.28-.22-.59-.33-.95-.33-.45,0-.82,.16-1.1,.49-.29,.31-.38,.67-.28,1.09h0c.62,3.21,2.09,5.47,4.38,6.83,2.12,1.25,4.26,1.87,6.4,1.86,.19,0,.4,0,.6-.02,.39-.03,.72-.18,1-.44,.27-.26,.4-.56,.4-.92,0-.44-.15-.77-.43-1.02Z"/>
    <path d="M31.07,13.5c-2.94-4.15-7.37-8.65-13.32-13.5C11.8,4.85,7.36,9.35,4.42,13.5,1.46,17.68,0,21.53,0,25.04c0,4.96,1.69,9.08,5.07,12.4s7.6,4.98,12.68,4.98,9.29-1.66,12.67-4.98c1.69-1.66,2.97-3.52,3.81-5.58,.85-2.07,1.27-4.34,1.27-6.82,0-3.51-1.46-7.36-4.43-11.54Zm-3.47,21.26c-2.6,2.58-5.89,3.86-9.85,3.86s-7.25-1.28-9.85-3.86c-2.6-2.58-3.9-5.82-3.9-9.72,0-2.68,1.16-5.69,3.45-9.01,2.28-3.32,5.66-6.93,10.13-10.85l.17-.14,.16,.14c4.47,3.92,7.85,7.53,10.14,10.85,2.28,3.32,3.45,6.33,3.45,9.01,0,3.9-1.3,7.14-3.9,9.72Z"/>
    <path d="M19.75,34.61c0,.36-.13,.66-.4,.92-.28,.26-.61,.41-1,.44-.2,.01-.41,.02-.6,.02-2.14,.01-4.28-.61-6.4-1.86-2.29-1.36-3.76-3.62-4.38-6.82h0c-.1-.43-.01-.79,.28-1.1,.28-.33,.65-.49,1.1-.49,.36,0,.67,.11,.95,.33,.27,.21,.43,.48,.5,.81,.46,2.46,1.58,4.19,3.39,5.15,1.58,.84,3.11,1.26,4.56,1.26,.16,0,.3-.01,.46-.02h.01c.46-.04,.82,.08,1.1,.34,.28,.25,.43,.58,.43,1.02Z"/>
  </g>
</svg>