<svg width="55" height="17" viewBox="0 0 55 17" xmlns="http://www.w3.org/2000/svg">
  <path
    d="M51.3601 0.278748H47.912C46.8337 0.278748 46.0224 0.578874 45.5634 1.64003L38.9446 16.7428H43.6418C43.6418 16.7428 44.4211 14.717 44.5812 14.2882H50.3033C50.4421 14.8563 50.8477 16.7428 50.8477 16.7428H55.0005L51.3601 0.278748ZM45.8623 10.9118C46.2253 9.96853 47.613 6.29199 47.613 6.29199C47.613 6.29199 47.9974 5.3273 48.2216 4.73776L48.5205 6.15264C48.5205 6.15264 49.3852 10.0757 49.556 10.9118H45.8623Z" />
  <path
    d="M32.9881 4.85561C32.9774 5.61665 33.9489 6.13115 35.5075 6.89218C38.0803 8.07125 39.2759 9.48613 39.2439 11.3726C39.2226 14.7919 36.1694 17 31.4828 17C29.4758 16.9786 27.5543 16.5712 26.5081 16.1211L27.1379 12.4338L27.7037 12.691C29.1662 13.302 30.127 13.5593 31.9099 13.5593C33.1909 13.5593 34.5681 13.0555 34.5894 11.9515C34.6001 11.2226 34.0022 10.7081 32.2728 9.90416C30.5647 9.12169 28.3229 7.80328 28.3549 5.44514C28.3763 2.25095 31.4935 0 35.9025 0C37.6319 0 39.0304 0.364439 39.9058 0.696721L39.2973 4.25536L38.8916 4.07314C38.0589 3.74086 37.0021 3.43001 35.5395 3.44073C33.7994 3.43001 32.9881 4.16961 32.9881 4.85561Z" />
  <path
    d="M26.4867 0.289185L23.7004 16.7425H19.238L19.7825 13.5483L20.6685 8.29612L22.0137 0.299903L26.4867 0.289185Z" />
  <path
    d="M10.4525 8.76796C8.95795 4.96279 5.39234 1.80074 0.0012207 0.493049L0.0546013 0.160767H6.98299C7.92243 0.203642 8.68039 0.493049 8.9366 1.50062L10.4525 8.76796Z" />
  <path
    d="M20.2101 0.310791L13.175 16.732H8.45642L4.45312 3.01193C7.32482 4.86628 9.76951 7.80323 10.6342 9.8398L11.1039 11.5441L15.4809 0.310791H20.2101Z" />
</svg>